HIERARCHY
ROOT Hips
{
	OFFSET 0.000000 0.000000 0.000000
	CHANNELS 6 Xposition Yposition Zposition Zrotation Yrotation Xrotation 
	JOINT LHipJoint
	{
		OFFSET 0.000000 0.000000 0.000000
		CHANNELS 3 Zrotation Yrotation Xrotation
		JOINT LeftUpLeg
		{
			OFFSET 1.363060 -1.794630 0.839290
			CHANNELS 3 Zrotation Yrotation Xrotation
			JOINT LeftLeg
			{
				OFFSET 2.448110 -6.726130 0.000000
				CHANNELS 3 Zrotation Yrotation Xrotation
				JOINT LeftFoot
				{
					OFFSET 2.562200 -7.039590 0.000000
					CHANNELS 3 Zrotation Yrotation Xrotation
					JOINT LeftToeBase
					{
						OFFSET 0.157640 -0.433110 2.322550
						CHANNELS 3 Zrotation Yrotation Xrotation
						End Site
						{
							OFFSET 0.000000 0.000000 0.000000
						}
					}
				}
			}
		}
	}
	JOINT RHipJoint
	{
		OFFSET 0.000000 0.000000 0.000000
		CHANNELS 3 Zrotation Yrotation Xrotation
		JOINT RightUpLeg
		{
			OFFSET -1.305520 -1.794630 0.839290
			CHANNELS 3 Zrotation Yrotation Xrotation
			JOINT RightLeg
			{
				OFFSET -2.542530 -6.985550 0.000000
				CHANNELS 3 Zrotation Yrotation Xrotation
				JOINT RightFoot
				{
					OFFSET -2.568260 -7.056230 0.000000
					CHANNELS 3 Zrotation Yrotation Xrotation
					JOINT RightToeBase
					{
						OFFSET -0.164730 -0.452590 2.363150
						CHANNELS 3 Zrotation Yrotation Xrotation
						End Site
						{
							OFFSET 0.000000 0.000000 0.000000
						}
					}
				}
			}
		}
	}
}
MOTION
Frames: 14
Frame Time: 0.008333
4.034353 17.413431 0.931144 8.809129 -50.573456 12.366322 -9.938836 0.088069 5.188542 -4.567058 -16.318050 -22.592823 -2.348550 -1.341277 -3.990659 -0.079560 2.534391 12.229954 1.409200 0.000000 -41.332100 10.276991 -1.071381 -3.678429 4.693340 -25.207809 -11.109751 1.791193 1.266289 -5.415534 -3.269033 -22.225363 4.533145 -6.884401 -0.000000 -58.073300
4.047451 17.412046 0.936817 8.721613 -50.674864 12.568093 -9.954009 0.086302 5.115043 -4.630845 -16.003183 -22.608200 -2.370412 -1.351893 -4.306144 -0.114528 2.226258 12.406150 1.312800 0.000000 -41.329200 10.267278 -1.041636 -3.640277 4.764174 -24.885188 -11.079239 1.758796 1.312370 -5.722956 -3.442818 -22.508621 4.711582 -6.919600 0.000000 -57.966600
4.062187 17.409843 0.940306 8.629723 -50.881879 12.751993 -9.966596 0.080453 5.018505 -4.714145 -15.614054 -22.611996 -2.391994 -1.363510 -4.581036 -0.144580 1.955165 12.533095 1.225600 0.000000 -41.346800 10.264032 -1.013126 -3.591377 4.821028 -24.507979 -11.039570 1.726186 1.357906 -6.051252 -3.619839 -22.729948 4.890017 -6.922800 0.000001 -57.869900
4.078046 17.406964 0.941595 8.541207 -51.174351 12.914255 -9.975425 0.070880 4.906519 -4.805253 -15.192047 -22.600621 -2.411236 -1.375761 -4.822091 -0.167323 1.745507 12.617662 1.156800 -0.000001 -41.383300 10.266572 -0.984769 -3.539523 4.861389 -24.104859 -10.994348 1.695442 1.400952 -6.384878 -3.790873 -22.882447 5.060758 -6.895700 0.000000 -57.785799
4.094792 17.403668 0.940961 8.457192 -51.531820 13.052243 -9.979309 0.056910 4.790698 -4.879879 -14.800626 -22.554874 -2.423873 -1.389605 -5.062337 -0.177805 1.650594 12.679006 1.126100 0.000000 -41.436400 10.264695 -0.946620 -3.497805 4.883468 -23.687543 -11.074161 1.671266 1.414457 -6.416531 -3.892085 -22.958947 5.045999 -6.844301 -0.000000 -57.723200
4.112016 17.400175 0.938800 8.374568 -51.931362 13.173295 -9.980612 0.040654 4.669487 -4.953412 -14.405491 -22.515286 -2.433305 -1.401507 -5.245755 -0.182650 1.600456 12.698559 1.108800 0.000000 -41.496200 10.256860 -0.899541 -3.466022 4.896485 -23.273467 -11.292659 1.655492 1.398724 -6.130920 -3.916599 -22.965621 4.838193 -6.775500 0.000000 -57.670600
4.129350 17.396757 0.935498 8.300891 -52.368446 13.278415 -9.979326 0.022551 4.546166 -5.018951 -14.043284 -22.572086 -2.430992 -1.399771 -5.195177 -0.181769 1.613677 12.575733 1.112400 -0.000001 -41.558600 10.249535 -0.851915 -3.443785 4.901519 -22.884741 -11.491910 1.644728 1.384503 -5.881129 -3.927774 -22.914550 4.654147 -6.696100 0.000001 -57.632000
4.146615 17.393608 0.931467 8.234591 -52.830108 13.370650 -9.978303 0.004865 4.424893 -5.069690 -13.716178 -22.629101 -2.422088 -1.394813 -5.114179 -0.173000 1.687535 12.431303 1.134800 0.000000 -41.618900 10.241859 -0.804097 -3.432734 4.901070 -22.528712 -11.667716 1.639033 1.372489 -5.674787 -3.926176 -22.813652 4.502237 -6.612500 -0.000000 -57.607900
4.163808 17.390963 0.927147 8.171620 -53.309266 13.455967 -9.979263 -0.011550 4.308077 -5.101118 -13.427158 -22.659070 -2.407608 -1.389650 -5.068353 -0.156055 1.818811 12.304937 1.174600 -0.000000 -41.673600 10.232355 -0.756082 -3.432823 4.898917 -22.203736 -11.819085 1.637989 1.363501 -5.516501 -3.913250 -22.674102 4.388782 -6.531100 0.000000 -57.597300
4.180710 17.388898 0.922895 8.111151 -53.800147 13.538088 -9.982687 -0.026029 4.195703 -5.116690 -13.167968 -22.664375 -2.388693 -1.384429 -5.059369 -0.132197 1.992248 12.200405 1.226400 -0.000000 -41.720200 10.220989 -0.708502 -3.441902 4.897050 -21.905372 -11.946015 1.640735 1.358015 -5.406779 -3.890734 -22.506303 4.316201 -6.456500 0.000000 -57.597600
4.197301 17.387501 0.919044 8.050250 -54.300769 13.622105 -9.989258 -0.038647 4.086809 -5.119216 -12.928917 -22.649650 -2.366186 -1.379188 -5.086306 -0.102573 2.195191 12.118746 1.286100 0.000001 -41.757000 10.207190 -0.661639 -3.457177 4.897695 -21.623489 -12.051302 1.646186 1.356296 -5.343674 -3.860885 -22.321440 4.284199 -6.392200 -0.000000 -57.604300
4.213607 17.386804 0.915711 7.987874 -54.810357 13.708005 -9.998520 -0.049950 3.980563 -5.111655 -12.705668 -22.619285 -2.340564 -1.373757 -5.138038 -0.067950 2.424162 12.053896 1.352700 0.000000 -41.783200 10.191453 -0.616164 -3.475636 4.899598 -21.347624 -12.135691 1.652803 1.357815 -5.322593 -3.826035 -22.129236 4.289889 -6.339901 0.000000 -57.615200
4.229582 17.386776 0.913051 7.923905 -55.330120 13.798035 -10.010389 -0.060745 3.875645 -5.097217 -12.491216 -22.578798 -2.312562 -1.368243 -5.206840 -0.029355 2.673642 12.000785 1.424700 0.000000 -41.798700 10.173790 -0.572481 -3.493965 4.902514 -21.065455 -12.203224 1.659224 1.362130 -5.337782 -3.788609 -21.938955 4.328649 -6.300800 -0.000001 -57.627400
4.245304 17.387356 0.911146 7.856581 -55.862178 13.897242 -10.026043 -0.071826 3.769089 -5.081561 -12.266612 -22.532267 -2.284003 -1.363210 -5.297522 0.011956 2.925474 11.963135 1.495900 0.000000 -41.804200 10.153177 -0.530480 -3.508759 4.908748 -20.763902 -12.261961 1.664529 1.369150 -5.382264 -3.751052 -21.759682 4.394167 -6.275400 -0.000000 -57.629300
